<svg width="28" height="28" viewBox="0 0 28 28" fill="none" xmlns="http://www.w3.org/2000/svg">
<g clip-path="url(#clip0_503_497)">
<path d="M21.0884 8.88788C20.8891 8.64877 20.6397 8.45646 20.3578 8.32462C20.0758 8.19277 19.7683 8.12462 19.4571 8.125H8.00475L7.975 7.87637C7.91412 7.35959 7.66573 6.8831 7.27693 6.53726C6.88813 6.19141 6.38594 6.00024 5.86558 6H5.70833C5.52047 6 5.3403 6.07463 5.20747 6.20747C5.07463 6.3403 5 6.52047 5 6.70833C5 6.89619 5.07463 7.07636 5.20747 7.2092C5.3403 7.34204 5.52047 7.41667 5.70833 7.41667H5.86558C6.03908 7.41669 6.20653 7.48039 6.33618 7.59567C6.46583 7.71096 6.54866 7.86982 6.56896 8.04212L7.54362 16.3296C7.64481 17.1915 8.05892 17.9863 8.70735 18.563C9.35578 19.1398 10.1934 19.4584 11.0612 19.4583H18.4583C18.6462 19.4583 18.8264 19.3837 18.9592 19.2509C19.092 19.118 19.1667 18.9379 19.1667 18.75C19.1667 18.5621 19.092 18.382 18.9592 18.2491C18.8264 18.1163 18.6462 18.0417 18.4583 18.0417H11.0612C10.6228 18.0404 10.1955 17.9036 9.83787 17.65C9.48026 17.3964 9.20985 17.0383 9.06371 16.625H17.507C18.3374 16.6251 19.1414 16.3333 19.7785 15.8008C20.4157 15.2683 20.8454 14.5288 20.9927 13.7116L21.5488 10.6275C21.6043 10.3215 21.5918 10.0071 21.5123 9.70645C21.4327 9.40581 21.288 9.12635 21.0884 8.88788ZM20.1583 10.3761L19.6016 13.4602C19.5131 13.951 19.2548 14.3952 18.8719 14.7148C18.489 15.0344 18.0058 15.2091 17.507 15.2083H8.83846L8.17192 9.54167H19.4571C19.5611 9.54105 19.664 9.56336 19.7585 9.60701C19.853 9.65067 19.9366 9.7146 20.0036 9.79426C20.0705 9.87392 20.1191 9.96735 20.1458 10.0679C20.1726 10.1685 20.1769 10.2737 20.1583 10.3761Z" fill="#94A3B8"/>
<path d="M9.95835 23.0003C10.7408 23.0003 11.375 22.3661 11.375 21.5837C11.375 20.8013 10.7408 20.167 9.95835 20.167C9.17595 20.167 8.54169 20.8013 8.54169 21.5837C8.54169 22.3661 9.17595 23.0003 9.95835 23.0003Z" fill="#94A3B8"/>
<path d="M17.0417 23.0003C17.8241 23.0003 18.4583 22.3661 18.4583 21.5837C18.4583 20.8013 17.8241 20.167 17.0417 20.167C16.2593 20.167 15.625 20.8013 15.625 21.5837C15.625 22.3661 16.2593 23.0003 17.0417 23.0003Z" fill="#94A3B8"/>
</g>
<circle cx="14" cy="14" r="13.5" stroke="#94A3B8"/>
<defs>
<clipPath id="clip0_503_497">
<rect width="17" height="17" fill="white" transform="translate(5 6)"/>
</clipPath>
</defs>
</svg>
