<svg width="40" height="40" viewBox="0 0 40 40" fill="none" xmlns="http://www.w3.org/2000/svg">
<g clip-path="url(#clip0_503_595)">
<path d="M39.7197 23.0358C41.5314 12.2515 34.1666 2.05548 23.2697 0.262408C12.3729 -1.53067 2.07055 5.7582 0.258779 16.5425C-1.553 27.3269 5.81189 37.5229 16.7087 39.316C27.6055 41.1091 37.9079 33.8202 39.7197 23.0358Z" fill="#F4E6E1"/>
<mask id="mask0_503_595" style="mask-type:luminance" maskUnits="userSpaceOnUse" x="-1" y="-1" width="41" height="41">
<path d="M39.7197 23.0358C41.5314 12.2515 34.1666 2.05548 23.2697 0.262408C12.3729 -1.53067 2.07055 5.7582 0.258779 16.5425C-1.553 27.3269 5.81189 37.5229 16.7087 39.316C27.6055 41.1091 37.9079 33.8202 39.7197 23.0358Z" fill="white"/>
</mask>
<g mask="url(#mask0_503_595)">
<path d="M12.4764 16.9747C8.33066 11.7312 11.8454 6.13673 15.0369 4.3562C19.7119 1.77572 27.5654 2.54987 28.5953 4.53168C29.4844 6.25027 27.9409 7.78824 27.9409 7.78824C27.9409 7.78824 30.2875 8.40755 30.2015 10.5029C30.1154 12.5983 27.4611 13.6304 27.4611 13.6304C27.4611 13.6304 30.1936 15.2949 25.1979 18.474C20.2021 21.6532 13.3655 18.0973 12.4764 16.9747Z" fill="#D88D48"/>
<path d="M37.4213 39.9973H2.57874C2.57874 39.9973 3.63473 34.2145 6.02832 30.8857C8.4219 27.5569 17.3131 26.3389 17.3131 26.3389L19.9987 26.7492L22.6869 26.3389C22.6869 26.3389 31.5781 27.5543 33.9743 30.8857C36.3705 34.2171 37.4213 39.9973 37.4213 39.9973Z" fill="#9FC9C1"/>
<path d="M28.6057 27.4642C28.2016 30.4085 25.6907 32.171 23.4927 33.1644C22.4145 33.6541 21.2423 33.9076 20.0561 33.9076C18.8699 33.9076 17.6977 33.6541 16.6196 33.1644C14.4241 32.171 11.9132 30.4085 11.5065 27.4642L13.0579 27.1777C13.4073 29.7169 15.6653 31.1826 17.5321 31.9697C18.3297 32.308 19.1884 32.4825 20.0561 32.4825C20.9238 32.4825 21.7825 32.308 22.5801 31.9697C24.4417 31.1826 26.705 29.7169 27.0543 27.1777L28.6057 27.4642Z" fill="#79B2A7"/>
<path d="M27.0543 27.1724C26.6919 29.8199 24.2462 31.3011 22.3454 32.0624C20.8771 32.6506 19.2351 32.6506 17.7668 32.0624C15.866 31.3011 13.4229 29.8199 13.0579 27.1724C15.7695 26.2872 19.5138 25.9053 19.5763 25.9002C19.884 25.8795 20.0535 25.877 20.0535 25.877C20.0535 25.877 20.223 25.877 20.5306 25.9002C20.5984 25.9157 24.3427 26.2872 27.0543 27.1724Z" fill="#F1B69A"/>
<path d="M19.9414 29.2703C19.631 29.272 19.3234 29.2128 19.0363 29.0961C18.7493 28.9793 18.4884 28.8073 18.269 28.5902C18.0495 28.373 17.8758 28.1148 17.7578 27.8307C17.6398 27.5466 17.58 27.2422 17.5817 26.935V22.4785H22.3011V26.9479C22.3011 27.254 22.24 27.557 22.1212 27.8397C22.0025 28.1223 21.8285 28.3789 21.6092 28.5947C21.3899 28.8105 21.1296 28.9813 20.8434 29.0973C20.5572 29.2132 20.2506 29.272 19.9414 29.2703Z" fill="#F1B69A"/>
<path d="M22.301 21.9629V24.7034C22.301 24.7034 21.5188 26.0659 19.9414 26.0659C18.682 26.0659 17.5817 24.884 17.5817 24.884V21.9629H22.301Z" fill="#150A08"/>
<path d="M13.3446 17.1655C12.0696 15.2456 10.5886 16.4791 10.5886 17.8312C10.5886 19.7872 12.7319 21.4723 13.9574 20.0685C15.1829 18.6647 13.3446 17.1655 13.3446 17.1655Z" fill="#F1B69A"/>
<path d="M13.0578 18.0536C12.2756 16.5828 11.1675 17.9556 11.5873 18.5001" stroke="#E07E61" stroke-miterlimit="10" stroke-linecap="round"/>
<path d="M26.087 17.1655C27.3646 15.2456 28.8456 16.4791 28.8456 17.8312C28.8456 19.7872 26.6997 21.4723 25.4768 20.0685C24.254 18.6647 26.087 17.1655 26.087 17.1655Z" fill="#F1B69A"/>
<path d="M26.366 18.0536C27.1612 16.5828 28.2589 17.9556 27.8391 18.5001" stroke="#E07E61" stroke-miterlimit="10" stroke-linecap="round"/>
<path d="M19.7067 24.7033C14.664 24.7033 11.6811 19.2456 12.8597 13.646C13.8322 9.02948 25.5942 9.03206 26.5641 13.646C27.7453 19.2456 24.752 24.7033 19.7067 24.7033Z" fill="#F1B69A"/>
<g style="mix-blend-mode:multiply" opacity="0.5">
<path d="M19.0366 19.0959C19.5581 19.3539 20.7262 18.7965 20.7497 19.0959C20.7731 19.3952 20.1291 19.6584 19.8945 19.6584C19.6598 19.6584 19.0366 19.0959 19.0366 19.0959Z" fill="#F1B69A"/>
</g>
<path d="M19.0548 17.5918C18.3169 19.1659 19.4172 19.4704 19.7119 19.5091" stroke="#E07E61" stroke-miterlimit="10" stroke-linecap="round"/>
<path d="M17.9519 20.3652C19.8996 20.7342 21.4432 20.4271 22.0664 19.9316" stroke="#150A08" stroke-miterlimit="10" stroke-linecap="round"/>
<path d="M17.7173 13.2997C17.4044 12.603 15.5558 12.9204 15.295 13.4158C15.0343 13.9113 15.8973 14.0532 16.5388 14.0196C17.1802 13.9861 17.9181 13.7435 17.7173 13.2997Z" fill="#D88D48"/>
<path d="M21.6335 13.8631C21.949 13.1689 23.795 13.4863 24.0558 13.9818C24.3165 14.4772 23.4535 14.6166 22.8121 14.5856C22.1706 14.5546 21.4275 14.3043 21.6335 13.8631Z" fill="#D88D48"/>
<g style="mix-blend-mode:multiply" opacity="0.5">
<path d="M19.2582 21.3149C19.9648 21.3149 20.9765 20.9536 21.1329 21.3149C21.2894 21.6761 20.4289 22.3987 19.8944 22.3471C19.3599 22.2954 18.4525 21.3123 19.2582 21.3149Z" fill="#F1B69A"/>
</g>
<path d="M16.3849 15.9837C16.3849 16.0833 16.4148 16.1807 16.4708 16.2635C16.5268 16.3463 16.6063 16.4108 16.6994 16.4488C16.7924 16.4868 16.8948 16.4966 16.9935 16.477C17.0922 16.4574 17.1828 16.4092 17.2538 16.3386C17.3248 16.2679 17.373 16.178 17.3923 16.0802C17.4116 15.9825 17.4012 15.8812 17.3623 15.7893C17.3234 15.6974 17.2579 15.619 17.1739 15.564C17.09 15.509 16.9914 15.48 16.8907 15.4805C16.8241 15.4805 16.7581 15.4935 16.6966 15.5188C16.635 15.5441 16.5791 15.5813 16.5321 15.628C16.4851 15.6748 16.4479 15.7303 16.4226 15.7913C16.3974 15.8523 16.3846 15.9177 16.3849 15.9837Z" fill="#150A08"/>
<path d="M23.0415 15.9837C23.0415 16.0833 23.0117 16.1807 22.9557 16.2635C22.8997 16.3463 22.8201 16.4108 22.7271 16.4488C22.634 16.4868 22.5316 16.4966 22.4329 16.477C22.3342 16.4574 22.2437 16.4092 22.1727 16.3386C22.1017 16.2679 22.0534 16.178 22.0341 16.0802C22.0148 15.9825 22.0252 15.8812 22.0641 15.7893C22.103 15.6974 22.1686 15.619 22.2525 15.564C22.3365 15.509 22.435 15.48 22.5357 15.4805C22.6024 15.4805 22.6683 15.4935 22.7299 15.5188C22.7914 15.5441 22.8473 15.5813 22.8943 15.628C22.9413 15.6748 22.9785 15.7303 23.0038 15.7913C23.0291 15.8523 23.0419 15.9177 23.0415 15.9837Z" fill="#150A08"/>
<path d="M16.2702 8.59635C16.1476 11.791 23.5083 13.4993 25.4612 13.2128C27.4142 12.9264 27.9982 10.4027 24.9398 8.3383C21.8813 6.27392 16.3249 7.17709 16.2702 8.59635Z" fill="#D88D48"/>
</g>
</g>
<defs>
<clipPath id="clip0_503_595">
<rect width="40" height="40" fill="white"/>
</clipPath>
</defs>
</svg>
