<svg width="95" height="95" viewBox="0 0 95 95" fill="none" xmlns="http://www.w3.org/2000/svg">
<circle cx="47.5" cy="47.5" r="47.5" fill="white"/>
<path d="M88.2283 54.2713C91.9682 31.7777 76.7653 10.5112 54.2717 6.77126C31.7781 3.03133 10.5117 18.2342 6.77174 40.7278C3.03181 63.2214 18.2347 84.4879 40.7283 88.2278C63.2219 91.9677 84.4883 76.7649 88.2283 54.2713Z" fill="#F4E6E1"/>
<mask id="mask0_770_865" style="mask-type:luminance" maskUnits="userSpaceOnUse" x="6" y="6" width="83" height="83">
<path d="M88.2283 54.2713C91.9682 31.7777 76.7653 10.5112 54.2717 6.77126C31.7781 3.03133 10.5117 18.2342 6.77174 40.7278C3.03181 63.2214 18.2347 84.4879 40.7283 88.2278C63.2219 91.9677 84.4883 76.7649 88.2283 54.2713Z" fill="white"/>
</mask>
<g mask="url(#mask0_770_865)">
<path d="M31.9916 41.6295C23.4338 30.6927 30.6891 19.024 37.277 15.3102C46.9274 9.92794 63.1388 11.5426 65.2648 15.6762C67.1002 19.2608 63.9139 22.4686 63.9139 22.4686C63.9139 22.4686 68.7579 23.7604 68.5803 28.1308C68.4027 32.5012 62.9235 34.6541 62.9235 34.6541C62.9235 34.6541 68.5641 38.1257 58.2517 44.7566C47.9393 51.3876 33.827 43.9708 31.9916 41.6295Z" fill="#D88D48"/>
<path d="M83.4843 89.6505H11.561C11.561 89.6505 13.7409 77.5888 18.6818 70.6457C23.6227 63.7025 41.9762 61.1621 41.9762 61.1621L47.52 62.0179L53.0691 61.1621C53.0691 61.1621 71.4226 63.6972 76.3689 70.6457C81.3152 77.5942 83.4843 89.6505 83.4843 89.6505Z" fill="#9FC9C1"/>
<path d="M65.2867 63.5076C64.4524 69.6488 59.2693 73.3248 54.732 75.397C52.5066 76.4183 50.0868 76.947 47.6382 76.947C45.1896 76.947 42.7698 76.4183 40.5444 75.397C36.0125 73.3248 30.8294 69.6488 29.9897 63.5076L33.1922 62.9102C33.9134 68.2063 38.5745 71.2634 42.4282 72.905C44.0745 73.6107 45.847 73.9746 47.6382 73.9746C49.4294 73.9746 51.2019 73.6107 52.8482 72.905C56.6912 71.2634 61.363 68.2063 62.0842 62.9102L65.2867 63.5076Z" fill="#79B2A7"/>
<path d="M62.0844 62.9011C61.3363 68.4233 56.2877 71.5127 52.364 73.1005C49.333 74.3274 45.9437 74.3274 42.9128 73.1005C38.9891 71.5127 33.9459 68.4233 33.1924 62.9011C38.7899 61.055 46.5189 60.2584 46.6481 60.2477C47.2832 60.2046 47.633 60.1992 47.633 60.1992C47.633 60.1992 47.9829 60.1992 48.618 60.2477C48.7579 60.28 56.4868 61.055 62.0844 62.9011Z" fill="#F1B69A"/>
<path d="M47.4018 67.2765C46.7611 67.2801 46.1261 67.1565 45.5335 66.913C44.941 66.6695 44.4026 66.3108 43.9495 65.8578C43.4965 65.4048 43.1379 64.8664 42.8943 64.2738C42.6508 63.6812 42.5273 63.0462 42.5308 62.4055V53.1104H52.2727V62.4324C52.2728 63.0708 52.1466 63.7029 51.9014 64.2924C51.6563 64.8819 51.2971 65.4171 50.8445 65.8672C50.3918 66.3174 49.8546 66.6737 49.2638 66.9155C48.673 67.1574 48.0402 67.28 47.4018 67.2765Z" fill="#F1B69A"/>
<path d="M52.2727 52.0332V57.7492C52.2727 57.7492 50.658 60.591 47.4017 60.591C44.8021 60.591 42.5308 58.1259 42.5308 58.1259V52.0332H52.2727Z" fill="#150A08"/>
<path d="M33.7843 42.0272C31.1523 38.0228 28.0952 40.5955 28.0952 43.4158C28.0952 47.4956 32.5194 51.0102 35.0491 48.0822C37.5788 45.1543 33.7843 42.0272 33.7843 42.0272Z" fill="#F1B69A"/>
<path d="M33.1929 43.8806C31.5782 40.8127 29.2907 43.6761 30.1573 44.8117" stroke="#E07E61" stroke-miterlimit="10" stroke-linecap="round"/>
<path d="M60.0876 42.0272C62.7249 38.0228 65.782 40.5955 65.782 43.4158C65.782 47.4956 61.3524 51.0102 58.8281 48.0822C56.3038 45.1543 60.0876 42.0272 60.0876 42.0272Z" fill="#F1B69A"/>
<path d="M60.6631 43.8806C62.3047 40.8127 64.5706 43.6761 63.7041 44.8117" stroke="#E07E61" stroke-miterlimit="10" stroke-linecap="round"/>
<path d="M46.917 57.7495C36.5077 57.7495 30.3504 46.366 32.7832 34.6864C34.7908 25.0576 59.0702 25.0629 61.0724 34.6864C63.5106 46.366 57.3317 57.7495 46.917 57.7495Z" fill="#F1B69A"/>
<g style="mix-blend-mode:multiply" opacity="0.5">
<path d="M45.5342 46.054C46.6106 46.5923 49.0219 45.4297 49.0703 46.054C49.1188 46.6784 47.7894 47.2274 47.305 47.2274C46.8205 47.2274 45.5342 46.054 45.5342 46.054Z" fill="#F1B69A"/>
</g>
<path d="M45.5717 42.917C44.0485 46.2002 46.3198 46.8353 46.928 46.916" stroke="#E07E61" stroke-miterlimit="10" stroke-linecap="round"/>
<path d="M43.2944 48.7021C47.315 49.4717 50.5013 48.8312 51.7877 47.7979" stroke="#150A08" stroke-miterlimit="10" stroke-linecap="round"/>
<path d="M42.8106 33.965C42.1647 32.5118 38.3487 33.1738 37.8104 34.2072C37.2722 35.2406 39.0537 35.5366 40.3778 35.4667C41.7018 35.3967 43.225 34.8908 42.8106 33.965Z" fill="#D88D48"/>
<path d="M50.8945 35.1385C51.5458 33.6906 55.3564 34.3527 55.8946 35.386C56.4329 36.4194 54.6514 36.7101 53.3273 36.6455C52.0033 36.5809 50.4693 36.0588 50.8945 35.1385Z" fill="#D88D48"/>
<g style="mix-blend-mode:multiply" opacity="0.5">
<path d="M45.991 50.6826C47.4496 50.6826 49.5379 49.929 49.8609 50.6826C50.1838 51.4361 48.4077 52.9431 47.3043 52.8355C46.2009 52.7278 44.3279 50.6772 45.991 50.6826Z" fill="#F1B69A"/>
</g>
<path d="M40.0596 39.5623C40.0596 39.7701 40.1213 39.9732 40.2368 40.1459C40.3524 40.3186 40.5166 40.4531 40.7087 40.5324C40.9008 40.6117 41.1121 40.6322 41.3159 40.5912C41.5196 40.5503 41.7066 40.4498 41.8532 40.3025C41.9997 40.1551 42.0993 39.9676 42.1392 39.7637C42.179 39.5597 42.1575 39.3485 42.0772 39.1569C41.997 38.9652 41.8616 38.8016 41.6883 38.687C41.515 38.5723 41.3116 38.5116 41.1037 38.5127C40.9662 38.5127 40.83 38.5399 40.7029 38.5927C40.5759 38.6455 40.4605 38.7229 40.3635 38.8204C40.2665 38.918 40.1897 39.0337 40.1375 39.161C40.0853 39.2883 40.0589 39.4247 40.0596 39.5623Z" fill="#150A08"/>
<path d="M53.8012 39.5623C53.8012 39.7701 53.7395 39.9732 53.624 40.1459C53.5084 40.3186 53.3442 40.4531 53.1521 40.5324C52.96 40.6117 52.7487 40.6322 52.545 40.5912C52.3412 40.5503 52.1542 40.4498 52.0076 40.3025C51.8611 40.1551 51.7616 39.9676 51.7217 39.7637C51.6818 39.5597 51.7033 39.3485 51.7836 39.1569C51.8639 38.9652 51.9992 38.8016 52.1725 38.687C52.3458 38.5723 52.5493 38.5116 52.7571 38.5127C52.8946 38.5127 53.0309 38.5399 53.1579 38.5927C53.2849 38.6455 53.4003 38.7229 53.4973 38.8204C53.5943 38.918 53.6711 39.0337 53.7233 39.161C53.7755 39.2883 53.8019 39.4247 53.8012 39.5623Z" fill="#150A08"/>
<path d="M39.8229 24.1528C39.57 30.816 54.7641 34.3791 58.7954 33.7817C62.8268 33.1842 64.0324 27.9204 57.719 23.6146C51.4056 19.3087 39.936 21.1925 39.8229 24.1528Z" fill="#D88D48"/>
</g>
</svg>
