<svg width="28" height="28" viewBox="0 0 28 28" fill="none" xmlns="http://www.w3.org/2000/svg">
<circle cx="14" cy="14" r="14" fill="white"/>
<g clip-path="url(#clip0_565_685)">
<path d="M18.0417 11.6663V9.54134C18.0417 9.35348 17.9671 9.17331 17.8343 9.04047C17.7014 8.90764 17.5213 8.83301 17.3334 8.83301H10.2501C9.87435 8.83301 9.51401 8.98226 9.24834 9.24794C8.98266 9.51362 8.8334 9.87395 8.8334 10.2497M8.8334 10.2497C8.8334 10.6254 8.98266 10.9857 9.24834 11.2514C9.51401 11.5171 9.87435 11.6663 10.2501 11.6663H18.7501C18.9379 11.6663 19.1181 11.741 19.2509 11.8738C19.3838 12.0066 19.4584 12.1868 19.4584 12.3747V14.4997M8.8334 10.2497V18.7497C8.8334 19.1254 8.98266 19.4857 9.24834 19.7514C9.51401 20.0171 9.87435 20.1663 10.2501 20.1663H18.7501C18.9379 20.1663 19.1181 20.0917 19.2509 19.9589C19.3838 19.826 19.4584 19.6459 19.4584 19.458V17.333" stroke="#047857" stroke-width="1.03835" stroke-linecap="round" stroke-linejoin="round"/>
<path d="M20.1667 14.5V17.3333H17.3334C16.9577 17.3333 16.5973 17.1841 16.3316 16.9184C16.066 16.6527 15.9167 16.2924 15.9167 15.9167C15.9167 15.5409 16.066 15.1806 16.3316 14.9149C16.5973 14.6493 16.9577 14.5 17.3334 14.5H20.1667Z" stroke="#047857" stroke-width="1.03835" stroke-linecap="round" stroke-linejoin="round"/>
</g>
<defs>
<clipPath id="clip0_565_685">
<rect width="17" height="17" fill="white" transform="translate(6.00003 6)"/>
</clipPath>
</defs>
</svg>
