<svg width="17" height="19" viewBox="0 0 17 19" fill="none" xmlns="http://www.w3.org/2000/svg">
<path d="M8.50005 12.3639C8.85988 12.3646 9.21489 12.2815 9.53704 12.1212L11.0825 11.3485C11.8702 10.9574 12.3671 10.1524 12.3637 9.27297V6.98029C12.3664 6.10159 11.8696 5.29769 11.0825 4.90708L9.53704 4.13436C8.88408 3.80981 8.11679 3.80981 7.46383 4.13436L5.91836 4.90708C5.13097 5.29747 4.63383 6.10145 4.6364 6.98029V9.27297C4.63358 10.1519 5.13036 10.9561 5.9176 11.347L7.46307 12.1197C7.78508 12.2805 8.14012 12.3641 8.50005 12.3639ZM6.18187 9.27297V6.98029C6.1831 6.90147 6.1964 6.82327 6.22128 6.74847L7.90584 7.59073C8.27994 7.77771 8.72021 7.77771 9.09431 7.59073L10.7789 6.74847C10.8037 6.82327 10.817 6.90147 10.8183 6.98029V9.27297C10.8195 9.56615 10.6537 9.83448 10.391 9.96455L8.8455 10.7373C8.62759 10.8451 8.37183 10.8451 8.15392 10.7373L6.60845 9.96455C6.34596 9.83426 6.1805 9.56601 6.18187 9.27297ZM13.9091 17.0002H11.8158L14.5103 14.5105C17.8298 11.1911 17.8299 5.80921 14.5105 2.48968C11.1911 -0.829846 5.80922 -0.829882 2.4897 2.4895C-0.829832 5.80888 -0.829905 11.1908 2.48951 14.5103C2.4968 14.5176 5.18429 17.0002 5.18429 17.0002H3.09097C2.66421 17.0002 2.31826 17.3462 2.31826 17.7729C2.31826 18.1997 2.66421 18.5457 3.09097 18.5457H13.9092C14.3359 18.5457 14.6819 18.1997 14.6819 17.7729C14.6819 17.3462 14.3359 17.0002 13.9091 17.0002ZM3.58243 3.5826C6.29238 0.860471 10.696 0.850619 13.4181 3.56057C16.1402 6.27053 16.1501 10.6741 13.4401 13.3962L10.3608 16.2406C9.30979 17.2313 7.66714 17.2255 6.62312 16.2275L3.58243 13.4178C0.870699 10.7002 0.870735 6.3003 3.58243 3.5826Z" fill="#ECFDF5"/>
</svg>
