<svg width="11" height="11" viewBox="0 0 11 11" fill="none" xmlns="http://www.w3.org/2000/svg">
<path d="M5.5 0C4.4122 0 3.34884 0.322569 2.44437 0.926917C1.5399 1.53126 0.834947 2.39025 0.418665 3.39524C0.00238307 4.40023 -0.106535 5.5061 0.105683 6.573C0.317902 7.63989 0.841726 8.6199 1.61091 9.38909C2.3801 10.1583 3.36011 10.6821 4.427 10.8943C5.4939 11.1065 6.59977 10.9976 7.60476 10.5813C8.60975 10.1651 9.46874 9.46011 10.0731 8.55564C10.6774 7.65116 11 6.5878 11 5.5C10.9984 4.04179 10.4185 2.64376 9.38735 1.61265C8.35624 0.581546 6.95821 0.00157716 5.5 0ZM5.5 9.625C4.68415 9.625 3.88663 9.38307 3.20827 8.92981C2.52992 8.47655 2.00121 7.83231 1.689 7.07857C1.37679 6.32482 1.2951 5.49542 1.45426 4.69525C1.61343 3.89508 2.00629 3.16008 2.58319 2.58318C3.16008 2.00629 3.89508 1.61342 4.69525 1.45426C5.49543 1.2951 6.32483 1.37679 7.07857 1.689C7.83232 2.00121 8.47655 2.52992 8.92981 3.20827C9.38307 3.88662 9.625 4.68415 9.625 5.5C9.62379 6.59364 9.1888 7.64215 8.41548 8.41547C7.64215 9.1888 6.59365 9.62379 5.5 9.625ZM3.08459 4.61817L7.5625 3.4375L6.39375 7.91542C6.36687 8.01146 6.30939 8.09612 6.23004 8.15654C6.15068 8.21696 6.05378 8.24985 5.95405 8.25021C5.85431 8.25058 5.75717 8.2184 5.67738 8.15855C5.59759 8.09871 5.5395 8.01447 5.51192 7.91862L4.8125 6.1875L3.08138 5.5C2.98553 5.47242 2.90129 5.41433 2.84145 5.33453C2.78161 5.25474 2.74942 5.15761 2.74979 5.05787C2.75015 4.95813 2.78304 4.86123 2.84346 4.78188C2.90388 4.70253 2.98854 4.64505 3.08459 4.61817Z" fill="#047857"/>
</svg>
