<svg width="28" height="28" viewBox="0 0 28 28" fill="none" xmlns="http://www.w3.org/2000/svg">
<g clip-path="url(#clip0_503_491)">
<path d="M12.6667 9.33333C12.6667 8.97971 12.8072 8.64057 13.0572 8.39052C13.3073 8.14048 13.6464 8 14 8C14.3536 8 14.6928 8.14048 14.9428 8.39052C15.1929 8.64057 15.3334 8.97971 15.3334 9.33333C16.099 9.69535 16.7516 10.2589 17.2214 10.9635C17.6912 11.6682 17.9603 12.4874 18 13.3333V15.3333C18.0502 15.7478 18.197 16.1447 18.4286 16.4921C18.6601 16.8395 18.9701 17.1276 19.3334 17.3333H8.66669C9.02998 17.1276 9.33989 16.8395 9.57148 16.4921C9.80306 16.1447 9.94985 15.7478 10 15.3333V13.3333C10.0397 12.4874 10.3089 11.6682 10.7787 10.9635C11.2484 10.2589 11.9011 9.69535 12.6667 9.33333Z" stroke="#94A3B8" stroke-width="1.33333" stroke-linecap="round" stroke-linejoin="round"/>
<path d="M12 17.333V17.9997C12 18.5301 12.2107 19.0388 12.5858 19.4139C12.9609 19.789 13.4696 19.9997 14 19.9997C14.5304 19.9997 15.0391 19.789 15.4142 19.4139C15.7893 19.0388 16 18.5301 16 17.9997V17.333" stroke="#94A3B8" stroke-width="1.33333" stroke-linecap="round" stroke-linejoin="round"/>
</g>
<circle cx="14" cy="14" r="13.5" stroke="#94A3B8"/>
<defs>
<clipPath id="clip0_503_491">
<rect width="16" height="16" fill="white" transform="translate(6 6)"/>
</clipPath>
</defs>
</svg>
