<svg width="11" height="11" viewBox="0 0 11 11" fill="none" xmlns="http://www.w3.org/2000/svg">
<path fill="#000" d="M10.3322 3.88684L7.11284 0.667508C6.22413 -0.221201 4.77625 -0.221201 3.88754 0.667508L0.667752 3.88684C-0.220956 4.77601 -0.220956 6.22297 0.667752 7.11213L3.88709 10.3315C4.33167 10.776 4.91559 10.9979 5.49996 10.9979C6.08434 10.9979 6.66825 10.776 7.11284 10.3315L10.3322 7.11213C11.2209 6.22297 11.2209 4.77601 10.3322 3.88684ZM7.85029 6.01351L6.74067 7.12313C6.65129 7.21251 6.53396 7.25742 6.41663 7.25742C6.29929 7.25742 6.18196 7.21251 6.09259 7.12313C5.91338 6.94392 5.91338 6.65426 6.09259 6.47505L7.06792 5.49972H4.58329C4.33029 5.49972 4.12496 5.70505 4.12496 5.95805V7.33305C4.12496 7.58651 3.92009 7.79138 3.66663 7.79138C3.41317 7.79138 3.20829 7.58651 3.20829 7.33305V5.95805C3.20829 5.19997 3.82521 4.58305 4.58329 4.58305H7.06792L6.09259 3.60772C5.91338 3.42851 5.91338 3.13884 6.09259 2.95963C6.27179 2.78042 6.56146 2.78042 6.74067 2.95963L7.85029 4.06926C8.38654 4.60551 8.38654 5.47726 7.85029 6.01351Z" />
</svg>
